<mxfile host="app.diagrams.net" modified="2023-05-07T17:37:56.588Z" agent="Mozilla/5.0 (Windows NT 10.0; Win64; x64) AppleWebKit/537.36 (KHTML, like Gecko) Chrome/113.0.0.0 Safari/537.36 Edg/113.0.1774.35" etag="ClIyYxkmZIVTJ2Bw4QkT" version="21.2.1" type="github">
  <diagram name="Sayfa -1" id="y-r3Z-7SwJxygcarjZaJ">
    <mxGraphModel dx="805" dy="778" grid="1" gridSize="10" guides="1" tooltips="1" connect="1" arrows="1" fold="1" page="1" pageScale="1" pageWidth="827" pageHeight="1169" math="0" shadow="0">
      <root>
        <mxCell id="0" />
        <mxCell id="1" parent="0" />
        <mxCell id="M6p-MC6of8Vy0JKGmaoe-3" value="Main" style="swimlane;whiteSpace=wrap;html=1;startSize=40;" vertex="1" parent="1">
          <mxGeometry x="310" y="70" width="200" height="160" as="geometry" />
        </mxCell>
        <mxCell id="M6p-MC6of8Vy0JKGmaoe-4" value="&lt;p style=&quot;line-height: 200%;&quot;&gt;#JFrame()&lt;br&gt;#GamePlay()&lt;/p&gt;" style="text;strokeColor=none;align=center;fillColor=none;html=1;verticalAlign=middle;whiteSpace=wrap;rounded=0;" vertex="1" parent="1">
          <mxGeometry x="320" y="110" width="170" height="90" as="geometry" />
        </mxCell>
        <mxCell id="M6p-MC6of8Vy0JKGmaoe-5" value="" style="endArrow=classic;html=1;rounded=0;entryX=0.5;entryY=1;entryDx=0;entryDy=0;" edge="1" parent="1" target="M6p-MC6of8Vy0JKGmaoe-3">
          <mxGeometry width="50" height="50" relative="1" as="geometry">
            <mxPoint x="410" y="310" as="sourcePoint" />
            <mxPoint x="460" y="320" as="targetPoint" />
          </mxGeometry>
        </mxCell>
        <mxCell id="M6p-MC6of8Vy0JKGmaoe-6" value="GamePlay" style="swimlane;whiteSpace=wrap;html=1;startSize=40;" vertex="1" parent="1">
          <mxGeometry x="310" y="320" width="200" height="210" as="geometry" />
        </mxCell>
        <mxCell id="M6p-MC6of8Vy0JKGmaoe-7" value="Vertical Container" style="swimlane;whiteSpace=wrap;html=1;startSize=20;" vertex="1" parent="1">
          <mxGeometry x="560" y="370" width="190" height="240" as="geometry" />
        </mxCell>
      </root>
    </mxGraphModel>
  </diagram>
</mxfile>
